<?xml version="1.0" encoding="UTF-8"?>
<svg xmlns="http://www.w3.org/2000/svg" viewBox="0 0 206.13 112.93" fill="#ffdf24">
  <g fill="#ffdf24">
    <g>
      <g>
        <path fill="#ffdf24" d="m166,83.72v-1.7c0-13.97,8.27-21.38,16.31-23.1,14.59-3.12,21.93,6.01,10.77,17.17l-7.59,7.63c.19,0,.38,0,.57,0,4.75-4.76,13.63-13.73,14.39-15.04,1.05-1.79,1.39-4.18.81-5.51-2.1-4.82-7.8-7.03-19.1-4.64-6.79,1.4-12.56,5.31-16.15,10.69,0,0-2.47,4.44-3.04,6.52-.54,1.99-.86,4.5-.86,5.45v2.53c1.3,0,2.6,0,3.9,0Z"/>
        <path fill="#ffdf24" d="m183.12,86.72c-.2,0-.41,0-.61,0l-16.51,16.61v-16.6c-1.3,0-2.6,0-3.9,0v22.22c0,2.42-2.34,3.2-4.76,3.2v.39h13.5v-.39c-2.42,0-4.84-.78-4.84-3.2v-4.92l13.12-13.37c5.23,9.52,14.44,21.88,27.01,21.88v-.39c-9.74,0-19.33-14.97-23.01-25.42Z"/>
      </g>
      <g>
        <path fill="#ffdf24" d="m151.4,61.5v22.21c1.3,0,2.6,0,3.9,0v-22.21c0-2.42,2.34-3.2,4.76-3.2v-.39h-13.42v.39c2.42,0,4.76.78,4.76,3.2Z"/>
        <path fill="#ffdf24" d="m151.4,86.73v.06c0,12.95-4.14,25.75-19.35,25.75s-19.28-12.8-19.28-25.75v-.02c-1.3,0-2.6,0-3.9,0v.02c0,14.36,6.4,26.14,23.18,26.14s23.26-11.79,23.26-26.14v-.06c-1.3,0-2.6,0-3.9,0Z"/>
        <path fill="#ffdf24" d="m108.86,61.5v22.16c1.3,0,2.6,0,3.9,0v-22.16c0-2.42,2.34-3.2,4.76-3.2v-.39h-13.42v.39c2.42,0,4.76.78,4.76,3.2Z"/>
      </g>
      <g>
        <path fill="#ffdf24" d="m42.19,83.7c.73-14.08,11.5-25.79,24.59-25.79h22.36c6.72,0,9.27,1.56,11.76,9.99l.31-.16-2.18-10.22h-32.25c-14.79,0-26.9,11.81-27.7,26.19,1.03,0,2.07,0,3.11,0Z"/>
        <path fill="#ffdf24" d="m89.14,112.53h-22.36c-13.09,0-23.86-11.71-24.59-25.79-1.04,0-2.07,0-3.11,0,.8,14.39,12.91,26.19,27.7,26.19h32.25l2.18-10.22-.31-.16c-2.49,8.43-5.04,9.99-11.76,9.99Z"/>
      </g>
      <g>
        <path fill="#ffdf24" d="m33.35,61.49v8.19c0,3.51-1.4,6.48-3.59,8.58l-5.59,5.49c.34,0,.69,0,1.03,0,.4-.61.88-1.22,1.44-1.82l10.61-10.38v-10.07c0-2.42,2.42-3.2,4.84-3.2v-.39h-13.5v.39c2.42,0,4.76.78,4.76,3.2Z"/>
        <path fill="#ffdf24" d="m3.92,83.88v-22.38c0-2.42,2.42-3.2,4.84-3.2v-.39H0s0,26,0,26c1.31,0,2.61-.02,3.92-.03Z"/>
        <path fill="#ffdf24" d="m23.83,86.68c-.87,0-1.74,0-2.62-.01L3.92,103.64v-17.07c-1.31,0-2.62-.02-3.92-.03v26h8.76v-.39c-2.42,0-4.84-.78-4.84-3.2v-4.76l14.28-14.05c-.55,11.47,14.52,22.4,30.36,22.4v-.39c-8.79,0-28.29-13.55-24.74-25.47Z"/>
      </g>
      <path fill="#ffdf24" d="m0,47.62v-24.71C0,12.14,8.02,3.4,18.57,1.16c10.11-2.13,15.38-.29,17.48,3.85.67,1.34.11,3.92-1.03,5.93-1.14,2-13.05,13.77-13.05,13.77,6.72-5.13,20.3-2.6,20.3,10.84,0,9.75-10.12,15.39-23.92,15.39H0v-3.32Zm28.68-30.2C39.02,7.08,32.23-1.37,18.72,1.52,11.27,3.11,3.61,9.97,3.61,22.9v19.73l25.07-25.22Zm-10.33,33.16c14.81,0,20.3-8.67,20.3-15.03,0-10.55-11.49-16.04-19-8.53L3.61,43.06v7.51h14.74Z"/>
      <path fill="#ffdf24" d="m206.13,85.05c-5.45.17-115.36.5-118.74.91-2.43.3-4.39.72-5.98,1.37-6.27,2.57-6.69,8.65-7.16,24.15-.49-16.03-.92-21.98-7.82-24.4-1.89-.66-4.27-1.06-7.27-1.32S4.45,85.36,0,85.22c4.43-.14,56.07-.27,59.1-.53s5.43-.66,7.33-1.33c6.89-2.42,7.32-8.38,7.81-24.4.48,15.55.9,21.62,7.22,24.18,1.6.65,3.58,1.07,6.03,1.36,3.36.4,113.24.39,118.63.55Z"/>
      <path fill="#ffdf24" d="m147.47,5.78c2.67-3.47,6.65-5.78,11.71-5.78,6.72,0,11.05,3.25,13.37,8.02,2.17-4.91,6.72-8.02,13.66-8.02,10.84,0,15.17,8.53,15.17,17.99v29.62c0,2.17,2.17,2.96,4.41,2.96v.36h-12.43v-.36c2.24,0,4.41-.72,4.41-2.96v-29.62c0-10.77-3.03-17.63-11.56-17.63-7.8,0-11.78,6.29-11.78,17.63v29.62c0,2.17,2.17,2.96,4.41,2.96v.36h-12.43v-.36c2.24,0,4.41-.72,4.41-2.96v-29.62c0-10.77-3.97-17.63-11.63-17.63-7.23,0-11.71,7.01-11.71,17.63v29.62c0,2.24,2.24,2.96,4.48,2.96v.36h-12.5v-.36c2.24,0,4.41-.72,4.41-2.96v-29.66c.03-4.49,1.27-8.62,3.61-12.17Z"/>
      <path fill="#ffdf24" d="m132.37,7.56c-10.02-10.02-26.44-9.88-36.3-.02-7.36,7.36-9.3,18.39-5.64,27.67.22-.39.4-.74.56-1.07-2.15-8.2.36-17.8,7.11-24.56C107.76-.08,123.24-1.06,132.11,7.81c8.79,8.79,7.86,24.31-1.8,33.96-9.66,9.66-25.13,10.63-33.96,1.8-2.31-2.31-3.95-5.08-4.95-8.07-.15.27-.31.55-.48.84,1.23,2.71,2.95,5.26,5.17,7.48,9.98,9.98,26.4,9.84,36.26-.02,9.86-9.86,9.99-26.28.02-36.26Z"/>
      <path fill="#ffdf24" d="m94.4,16.11c-.22.39-.41.75-.57,1.09,2.13,8.19-.35,17.82-7.11,24.58-9.66,9.66-25.13,10.63-33.96,1.8-8.88-8.88-7.9-24.35,1.76-34.01C64.18-.08,79.65-1.06,88.53,7.81c2.29,2.29,3.91,5.03,4.9,8.01.15-.27.31-.55.49-.85-1.22-2.69-2.93-5.21-5.13-7.41-10.02-10.02-26.44-9.88-36.3-.02-9.86,9.86-9.99,26.28.02,36.3,9.98,9.98,26.4,9.84,36.26-.02,7.38-7.38,9.31-18.43,5.64-27.7Z"/>
    </g>
  </g>
</svg>
