<?xml version="1.0" encoding="UTF-8"?>
<svg id="Calque_2" data-name="Calque 2" xmlns="http://www.w3.org/2000/svg" viewBox="0 0 241.17 132.13">
  <defs>
    <style>
      .cls-1 {
        fill: #fff;
        stroke-width: 0px;
      }
    </style>
  </defs>
  <g id="Calque_2-2" data-name="Calque 2">
    <g id="Calque_1-2" data-name="Calque 1-2">
      <g id="Calque_1-2-2" data-name="Calque 1-2">
        <g>
          <g>
            <path class="cls-1" d="m194.21,97.95v-1.99c0-16.34,9.67-25.01,19.08-27.02,17.07-3.65,25.66,7.03,12.6,20.09l-8.88,8.92h.66c5.56-5.57,15.94-16.06,16.84-17.6,1.23-2.09,1.63-4.89.95-6.45-2.45-5.64-9.12-8.23-22.34-5.43-7.95,1.64-14.69,6.21-18.89,12.5,0,0-2.89,5.2-3.56,7.63-.63,2.33-1.01,5.26-1.01,6.38v2.96h4.57-.01Z"/>
            <path class="cls-1" d="m214.25,101.47h-.72l-19.32,19.44v-19.43h-4.57v25.99c0,2.83-2.74,3.75-5.57,3.75v.45h15.8v-.45c-2.83,0-5.66-.92-5.66-3.75v-5.76l15.35-15.64c6.11,11.13,16.89,25.6,31.6,25.6v-.45c-11.4,0-22.62-17.51-26.92-29.74h0v-.02Z"/>
          </g>
          <g>
            <path class="cls-1" d="m177.13,71.96v25.98h4.57v-25.98c0-2.83,2.74-3.75,5.57-3.75v-.45h-15.7v.45c2.83,0,5.57.92,5.57,3.75h0Z"/>
            <path class="cls-1" d="m177.13,101.48v.07c0,15.15-4.84,30.13-22.64,30.13s-22.55-14.98-22.55-30.13v-.02h-4.57v.02c0,16.8,7.49,30.58,27.12,30.58s27.21-13.8,27.21-30.58v-.07s-4.58,0-4.58,0Z"/>
            <path class="cls-1" d="m127.37,71.96v25.93h4.57v-25.93c0-2.83,2.74-3.75,5.57-3.75v-.45h-15.7v.45c2.83,0,5.57.92,5.57,3.75Z"/>
          </g>
          <g>
            <path class="cls-1" d="m49.37,97.93c.85-16.47,13.46-30.17,28.77-30.17h26.16c7.86,0,10.85,1.82,13.75,11.69l.36-.19-2.55-11.95h-37.73c-17.3,0-31.48,13.82-32.41,30.64h3.64v-.02Z"/>
            <path class="cls-1" d="m104.29,131.66h-26.16c-15.31,0-27.92-13.7-28.77-30.17h-3.64c.94,16.84,15.1,30.64,32.41,30.64h37.73l2.55-11.95-.36-.19c-2.92,9.86-5.89,11.69-13.75,11.69h0v-.02Z"/>
          </g>
          <g>
            <path class="cls-1" d="m39.02,71.95v9.59c0,4.1-1.64,7.58-4.2,10.04l-6.54,6.42h1.21c.46-.72,1.03-1.43,1.68-2.13l12.42-12.14v-11.79c0-2.83,2.83-3.75,5.66-3.75v-.45h-15.8v.45c2.83,0,5.57.92,5.57,3.75h-.01Z"/>
            <path class="cls-1" d="m4.59,98.14v-26.18c0-2.83,2.83-3.75,5.66-3.75v-.45H0v30.42c1.54,0,3.05-.02,4.59-.03h0Z"/>
            <path class="cls-1" d="m27.88,101.42c-1.02,0-2.03,0-3.06-.01l-20.23,19.86v-19.97c-1.54,0-3.06-.02-4.59-.03v30.42h10.25v-.45c-2.83,0-5.66-.92-5.66-3.75v-5.57l16.71-16.44c-.64,13.42,16.99,26.2,35.52,26.2v-.45c-10.28,0-33.1-15.85-28.94-29.8h.01-.01Z"/>
          </g>
          <path class="cls-1" d="m0,55.72v-28.91C0,14.22,9.39,3.99,21.73,1.37c11.83-2.49,18-.34,20.45,4.5.78,1.57.13,4.59-1.21,6.94-1.34,2.34-15.27,16.11-15.27,16.11,7.86-6,23.75-3.04,23.75,12.68,0,11.41-11.84,18.01-27.98,18.01H0v-3.88ZM33.56,20.38C45.66,8.28,37.72-1.6,21.91,1.78,13.2,3.64,4.23,11.66,4.23,26.79v23.08l29.33-29.51h0v.02Zm-12.08,38.8c17.33,0,23.75-10.14,23.75-17.58,0-12.34-13.44-18.76-22.23-9.98L4.24,50.39v8.79h17.25-.01Z"/>
          <path class="cls-1" d="m241.17,99.51c-6.38.2-134.97.59-138.92,1.06-2.84.35-5.14.84-7,1.6-7.33,3.01-7.83,10.12-8.38,28.26-.57-18.75-1.07-25.72-9.15-28.55-2.21-.77-5-1.24-8.5-1.55-3.51-.31-64-.46-69.21-.63,5.19-.17,65.6-.32,69.14-.62s6.36-.77,8.58-1.56c8.06-2.83,8.57-9.81,9.13-28.55.56,18.2,1.05,25.3,8.45,28.29,1.87.76,4.19,1.25,7.05,1.59,3.94.46,132.49.45,138.8.64h.01v.02Z"/>
          <path class="cls-1" d="m172.53,6.77c3.13-4.06,7.78-6.77,13.7-6.77,7.86,0,12.92,3.8,15.64,9.39C204.41,3.64,209.74,0,217.86,0,230.54,0,235.61,9.98,235.61,21.05v34.65c0,2.54,2.54,3.46,5.16,3.46v.42h-14.54v-.42c2.62,0,5.16-.84,5.16-3.46V21.06c0-12.6-3.55-20.63-13.52-20.63-9.12,0-13.79,7.36-13.79,20.63v34.65c0,2.54,2.54,3.46,5.16,3.46v.42h-14.54v-.42c2.62,0,5.16-.84,5.16-3.46V21.06c0-12.6-4.64-20.63-13.61-20.63-8.46,0-13.7,8.2-13.7,20.63v34.65c0,2.62,2.62,3.46,5.24,3.46v.42h-14.63v-.42c2.62,0,5.16-.84,5.16-3.46V21.01c.03-5.25,1.48-10.08,4.22-14.24h-.01.02Z"/>
          <path class="cls-1" d="m154.87,8.85c-11.72-11.72-30.93-11.55-42.47-.02-8.61,8.61-10.88,21.52-6.6,32.37.25-.45.46-.86.65-1.25-2.52-9.6.42-20.83,8.31-28.73,11.3-11.3,29.41-12.45,39.79-2.07,10.28,10.28,9.2,28.45-2.1,39.74-11.3,11.3-29.4,12.44-39.74,2.1-2.7-2.7-4.62-5.95-5.79-9.44-.18.32-.36.64-.56.98,1.44,3.17,3.45,6.16,6.05,8.76,11.68,11.68,30.89,11.51,42.42-.02,11.53-11.53,11.69-30.75.02-42.42v.02h.01Z"/>
          <path class="cls-1" d="m110.45,18.86c-.25.45-.48.87-.66,1.27,2.49,9.59-.41,20.85-8.31,28.76-11.3,11.3-29.4,12.44-39.74,2.1-10.39-10.39-9.24-28.49,2.06-39.79C75.1-.08,93.2-1.23,103.58,9.15c2.68,2.68,4.58,5.88,5.74,9.38.18-.32.36-.64.57-.99-1.43-3.15-3.43-6.09-6-8.67-11.72-11.72-30.93-11.55-42.47-.02-11.53,11.53-11.69,30.75.02,42.47,11.68,11.68,30.89,11.51,42.42-.02,8.63-8.63,10.89-21.56,6.6-32.41h-.01v-.02Z"/>
        </g>
      </g>
    </g>
  </g>
</svg>